<svg width="6" height="5" viewBox="0 0 6 5" fill="none" xmlns="http://www.w3.org/2000/svg">
<path opacity="0.2" d="M1.31915 1.95958C1.05949 1.91217 0.821015 2.07595 0.771582 2.32647C0.722149 2.577 0.888374 2.82159 1.14097 2.87062C1.90147 3.01716 2.48869 3.59901 2.63753 4.35327V4.3538C2.6799 4.57092 2.87329 4.72878 3.09601 4.72878C3.12589 4.72878 3.15576 4.72608 3.18618 4.7207C3.43878 4.67059 3.605 4.42654 3.55557 4.17548C3.3334 3.04894 2.4561 2.17886 1.31915 1.95958Z" fill="white"/>
<path opacity="0.2" d="M1.28514 0.0824001C1.16346 0.06516 1.04123 0.100718 0.943997 0.177221C0.844045 0.254801 0.781575 0.366862 0.767995 0.492391C0.739204 0.746144 0.924442 0.975653 1.18084 1.00421C2.94901 1.19924 4.32335 2.56067 4.52217 4.31377C4.54879 4.54867 4.74815 4.72591 4.98608 4.72591C5.00401 4.72591 5.02139 4.72484 5.03932 4.72268C5.16371 4.70921 5.27453 4.64833 5.35275 4.55136C5.43043 4.45438 5.46574 4.3337 5.45162 4.21033C5.20391 2.02299 3.49115 0.325378 1.28514 0.0824001Z" fill="white"/>
</svg>
