<svg width="73" height="72" viewBox="0 0 73 72" fill="none" xmlns="http://www.w3.org/2000/svg">
<g filter="url(#filter0_d_1_455)">
<rect x="10" y="25.2627" width="40.0735" height="37.402" rx="7" transform="rotate(-28.7302 10 25.2627)" fill="url(#paint0_linear_1_455)" shape-rendering="crispEdges"/>
</g>
<path fill-rule="evenodd" clip-rule="evenodd" d="M27.9489 25.3183L35.5167 21.218C38.4757 19.6147 41.5954 20.5936 43.2893 23.6477L47.1984 30.6963C48.888 33.7427 48.0453 36.8695 45.0863 38.4728L37.5185 42.5731C34.5595 44.1763 31.4306 43.2012 29.7411 40.1549L25.8319 33.1063C24.1381 30.0522 24.9899 26.9215 27.9489 25.3183ZM41.4611 33.4918C41.6793 33.3736 41.8354 33.1432 41.8427 32.8699C41.8668 32.4631 41.542 32.123 41.1229 32.1043L37.0012 31.9589L34.7901 27.9722C34.5944 27.6193 34.1432 27.4812 33.7766 27.6798C33.4187 27.8737 33.2851 28.3287 33.4808 28.6816L35.8976 33.0393C36.022 33.2636 36.2638 33.4131 36.5268 33.4164L41.0681 33.5814C41.2111 33.5936 41.3477 33.5533 41.4611 33.4918Z" fill="white"/>
<defs>
<filter id="filter0_d_1_455" x="0.50174" y="0.501709" width="72.1153" height="71.0566" filterUnits="userSpaceOnUse" color-interpolation-filters="sRGB">
<feFlood flood-opacity="0" result="BackgroundImageFix"/>
<feColorMatrix in="SourceAlpha" type="matrix" values="0 0 0 0 0 0 0 0 0 0 0 0 0 0 0 0 0 0 127 0" result="hardAlpha"/>
<feOffset dy="4"/>
<feGaussianBlur stdDeviation="6"/>
<feComposite in2="hardAlpha" operator="out"/>
<feColorMatrix type="matrix" values="0 0 0 0 0 0 0 0 0 0 0 0 0 0 0 0 0 0 0.12 0"/>
<feBlend mode="normal" in2="BackgroundImageFix" result="effect1_dropShadow_1_455"/>
<feBlend mode="normal" in="SourceGraphic" in2="effect1_dropShadow_1_455" result="shape"/>
</filter>
<linearGradient id="paint0_linear_1_455" x1="10" y1="42.7169" x2="49.113" y2="42.9039" gradientUnits="userSpaceOnUse">
<stop stop-color="#AA80FF"/>
<stop offset="1" stop-color="#A071FF" stop-opacity="0.65"/>
</linearGradient>
</defs>
</svg>
